Coordinates
version=1
nRows=41
nColumns=38
inDegrees=no

Units are S.I. units (second, meters, Newtons, ...)
If the header above contains a line with 'inDegrees', this indicates whether rotational values are in degrees (yes) or radians (no).

endheader
time	pelvis_tilt	pelvis_list	pelvis_rotation	pelvis_tx	pelvis_ty	pelvis_tz	hip_flexion_r	hip_adduction_r	hip_rotation_r	knee_angle_r	ankle_angle_r	subtalar_angle_r	mtp_angle_r	hip_flexion_l	hip_adduction_l	hip_rotation_l	knee_angle_l	ankle_angle_l	subtalar_angle_l	mtp_angle_l	lumbar_extension	lumbar_bending	lumbar_rotation	arm_flex_r	arm_add_r	arm_rot_r	elbow_flex_r	pro_sup_r	wrist_flex_r	wrist_dev_r	arm_flex_l	arm_add_l	arm_rot_l	elbow_flex_l	pro_sup_l	wrist_flex_l	wrist_dev_l
1.19	3.01112	1.36392	-1.33944	0.620675	0.996117	0.934846	-0.453009	-0.00704691	-0.263121	0.363854	0.00051231	0	0	0.134476	-0.0483522	-0.245648	0.194725	-0.204588	0	0	-0.329171	-0.0323837	-0.135243	0.14296	-0.478436	1.19138	0.683411	0.274767	0	0	-0.3468	-0.32955	0.00613879	0.855228	1.52796	0	0
1.2	3.02121	1.36264	-1.35226	0.618459	1.00798	0.934398	-0.458898	-0.0123005	-0.254163	0.376823	-0.00826351	0	0	0.127589	-0.0441924	-0.244861	0.216248	-0.199741	0	0	-0.329136	-0.0364694	-0.132459	0.139541	-0.47917	1.19163	0.681272	0.274747	0	0	-0.347819	-0.330609	0.00714124	0.850167	1.52866	0	0
1.21	3.03437	1.3611	-1.36671	0.616033	1.02011	0.934175	-0.463074	-0.0187659	-0.249825	0.395451	-0.0190045	0	0	0.118622	-0.0380061	-0.245043	0.227939	-0.201378	0	0	-0.328931	-0.040809	-0.130919	0.134835	-0.479813	1.19083	0.678912	0.274757	0	0	-0.348842	-0.331962	0.00817647	0.845251	1.53029	0	0
1.22	3.04989	1.36052	-1.3825	0.613406	1.0323	0.934184	-0.4646	-0.0258549	-0.245129	0.416973	-0.0322681	0	0	0.109928	-0.0302741	-0.245839	0.231012	-0.21484	0	0	-0.327714	-0.0455334	-0.130493	0.129361	-0.479845	1.18855	0.67556	0.274691	0	0	-0.349017	-0.333051	0.00861138	0.839399	1.53024	0	0
1.23	3.06832	1.36137	-1.40038	0.610602	1.04448	0.934434	-0.462678	-0.0336101	-0.238852	0.441124	-0.048263	0	0	0.102554	-0.0219112	-0.246906	0.231641	-0.236422	0	0	-0.325067	-0.0508712	-0.130679	0.123408	-0.478958	1.18603	0.670714	0.275368	0	0	-0.34807	-0.33426	0.00951447	0.832506	1.53081	0	0
1.24	3.0884	1.36351	-1.41894	0.607569	1.05669	0.934872	-0.457451	-0.0416595	-0.230652	0.467885	-0.0673983	0	0	0.0967636	-0.0135486	-0.248028	0.234865	-0.257192	0	0	-0.321007	-0.0562452	-0.131678	0.117088	-0.477753	1.18384	0.665074	0.276619	0	0	-0.346504	-0.335436	0.010564	0.825184	1.5328	0	0
1.25	3.10014	1.36744	-1.42881	0.604358	1.0688	0.935496	-0.447487	-0.047998	-0.217714	0.497211	-0.0928461	0	0	0.0943336	-0.00764532	-0.247864	0.242979	-0.273793	0	0	-0.314786	-0.059489	-0.132599	0.110623	-0.476153	1.18095	0.657759	0.277653	0	0	-0.343275	-0.335432	0.0111519	0.815795	1.53602	0	0
1.26	-3.10014	1.40486	-1.51529	0.601062	1.08126	0.931985	-0.320643	-0.110269	-0.277046	0.734804	-0.0699768	0	0	0.131012	0.0163656	-0.24448	0.262995	-0.277737	0	0	-0.270172	-0.0808784	-0.131596	0.0963404	-0.474726	1.17416	0.652045	0.280264	0	0	-0.347645	-0.334948	0.008059	0.808454	1.54177	0	0
1.27	-3.00568	1.43288	-1.60944	0.597759	1.09371	0.929349	-0.230463	-0.155225	-0.293705	0.886462	-0.0875104	0	0	0.158572	0.0343052	-0.238319	0.283865	-0.277129	0	0	-0.23394	-0.0972388	-0.133748	0.0840351	-0.474994	1.16993	0.649986	0.283369	0	0	-0.35401	-0.336293	0.00480964	0.806739	1.54433	0	0
1.28	3.129	1.37634	-1.44012	0.5932	1.10558	0.937823	-0.404453	-0.0701372	-0.201876	0.610524	-0.202674	0	0	0.0850693	0.00446408	-0.233296	0.28154	-0.295019	0	0	-0.295917	-0.0623857	-0.14932	0.0905042	-0.478173	1.17285	0.646669	0.284949	0	0	-0.339607	-0.33458	0.00618405	0.799318	1.54572	0	0
1.29	3.14118	1.37389	-1.44498	0.58947	1.11743	0.939077	-0.388939	-0.0797828	-0.202004	0.659572	-0.244581	0	0	0.0737074	0.00757705	-0.228101	0.290851	-0.293311	0	0	-0.29661	-0.0620248	-0.156835	0.085288	-0.483304	1.17019	0.651438	0.28458	0	0	-0.338864	-0.336566	0.00578038	0.800756	1.54528	0	0
1.3	-3.12632	1.37213	-1.45373	0.585883	1.12901	0.940433	-0.369882	-0.0907654	-0.202183	0.712031	-0.292204	0	0	0.0617695	0.0113977	-0.224473	0.297967	-0.287714	0	0	-0.296611	-0.0626478	-0.164641	0.0811047	-0.48697	1.16836	0.654165	0.285325	0	0	-0.337197	-0.339658	0.00703499	0.802093	1.54492	0	0
1.31	-3.1049	1.37047	-1.46883	0.582468	1.14023	0.941902	-0.347855	-0.10294	-0.201383	0.766173	-0.341498	0	0	0.0489353	0.0162113	-0.223547	0.30345	-0.281634	0	0	-0.297055	-0.0647062	-0.172907	0.078307	-0.489706	1.16736	0.656122	0.287311	0	0	-0.334591	-0.343816	0.00902052	0.804588	1.54192	0	0
1.32	-3.07965	1.36965	-1.48902	0.579241	1.15113	0.943307	-0.320173	-0.116404	-0.198484	0.819329	-0.397543	0	0	0.0364036	0.0218468	-0.22538	0.308265	-0.274774	0	0	-0.296956	-0.0680968	-0.180838	0.0760173	-0.492166	1.16474	0.658229	0.289264	0	0	-0.331477	-0.348994	0.0123917	0.808406	1.53797	0	0
1.33	-3.05422	1.36836	-1.51085	0.5762	1.16178	0.94462	-0.290908	-0.13026	-0.194431	0.873729	-0.438754	0	0	0.0225446	0.0274583	-0.229985	0.311976	-0.267968	0	0	-0.297626	-0.071869	-0.188204	0.074701	-0.495941	1.16209	0.662846	0.291307	0	0	-0.328712	-0.354551	0.0150684	0.814549	1.53532	0	0
1.34	-3.03604	1.36721	-1.52655	0.573313	1.17221	0.945777	-0.260756	-0.14232	-0.188893	0.927784	-0.468538	0	0	0.00842094	0.0316036	-0.23549	0.314889	-0.260334	0	0	-0.29831	-0.074212	-0.195102	0.0751342	-0.501372	1.16132	0.669459	0.294836	0	0	-0.32582	-0.359824	0.0165104	0.822333	1.53202	0	0
1.35	-3.03004	1.366	-1.53099	0.570597	1.18236	0.946886	-0.229931	-0.150273	-0.180313	0.980434	-0.493934	0	0	-0.00594679	0.0331139	-0.240802	0.316933	-0.251436	0	0	-0.299489	-0.0740073	-0.201075	0.0768247	-0.507871	1.16134	0.677315	0.299	0	0	-0.322045	-0.364825	0.0176133	0.830964	1.52863	0	0
1.36	-3.02982	1.36622	-1.531	0.568157	1.19229	0.947773	-0.196489	-0.157394	-0.173045	1.0347	-0.510152	0	0	-0.0188953	0.0334289	-0.245333	0.317833	-0.242572	0	0	-0.29939	-0.0729143	-0.205857	0.0791786	-0.514759	1.16169	0.685876	0.303055	0	0	-0.31775	-0.36985	0.0183694	0.840176	1.52606	0	0
1.37	-3.03599	1.36687	-1.52485	0.565949	1.20211	0.948722	-0.162716	-0.16271	-0.168083	1.08602	-0.509042	0	0	-0.0318304	0.0321819	-0.248013	0.316296	-0.235144	0	0	-0.298715	-0.0706408	-0.21018	0.0819017	-0.520568	1.16204	0.692624	0.306364	0	0	-0.312182	-0.374927	0.0192742	0.848099	1.52459	0	0
1.38	-3.04706	1.36725	-1.51455	0.563947	1.21172	0.949867	-0.128453	-0.166672	-0.163567	1.13105	-0.493098	0	0	-0.0453315	0.0297362	-0.250556	0.312365	-0.230153	0	0	-0.298482	-0.0674521	-0.213571	0.0856683	-0.525356	1.16306	0.697239	0.309175	0	0	-0.304662	-0.379888	0.0204854	0.85434	1.52464	0	0
1.39	-3.0607	1.3677	-1.50228	0.562095	1.22118	0.951126	-0.0938626	-0.169623	-0.159414	1.17103	-0.463606	0	0	-0.0587657	0.0265558	-0.253616	0.307624	-0.226808	0	0	-0.298167	-0.0638422	-0.216113	0.0899968	-0.529436	1.16442	0.700266	0.31176	0	0	-0.295527	-0.384552	0.0216943	0.859182	1.52674	0	0
1.4	-3.07629	1.36833	-1.48807	0.560321	1.23055	0.952402	-0.0597823	-0.171513	-0.156359	1.20642	-0.431791	0	0	-0.0719228	0.0229748	-0.257413	0.302909	-0.224465	0	0	-0.297689	-0.0597829	-0.218408	0.0949801	-0.533023	1.1674	0.702099	0.314519	0	0	-0.285297	-0.38904	0.0225311	0.863326	1.52907	0	0
1.41	-3.0927	1.37051	-1.47293	0.558568	1.23982	0.953492	-0.0242675	-0.173379	-0.155201	1.23707	-0.404029	0	0	-0.0829604	0.019523	-0.261316	0.299257	-0.221634	0	0	-0.295483	-0.0555575	-0.220501	0.100211	-0.536351	1.17186	0.70311	0.317307	0	0	-0.273963	-0.393157	0.0231228	0.86695	1.53026	0	0
1.42	-3.13552	1.37029	-1.43145	0.556652	1.24859	0.955247	-0.00198796	-0.203355	-0.240433	1.24397	-0.403835	0	0	-0.0951133	0.0104474	-0.265388	0.296169	-0.219214	0	0	-0.296231	-0.0446201	-0.22056	0.107837	-0.538693	1.17877	0.699517	0.320018	0	0	-0.256517	-0.394526	0.0249618	0.864724	1.53221	0	0
1.43	-3.13276	1.37419	-1.43313	0.555212	1.25834	0.955356	0.042445	-0.176304	-0.161518	1.27745	-0.374308	0	0	-0.104997	0.0110684	-0.267824	0.294369	-0.212699	0	0	-0.290916	-0.0451923	-0.225538	0.110318	-0.543524	1.18291	0.70578	0.32108	0	0	-0.250513	-0.401514	0.0234549	0.87539	1.53217	0	0
1.44	-3.13128	1.37209	-1.42986	0.55312	1.26833	0.955985	0.0641255	-0.205416	-0.209148	1.29114	-0.368035	0	0	-0.122571	0.0107903	-0.269414	0.289748	-0.207594	0	0	-0.291406	-0.0432232	-0.232981	0.112088	-0.549787	1.18614	0.712891	0.321567	0	0	-0.243875	-0.407986	0.0225172	0.886385	1.53219	0	0
1.45	3.12853	1.37002	-1.40363	0.551432	1.27756	0.957041	0.0868727	-0.204415	-0.217611	1.29257	-0.359307	0	0	-0.137643	0.00470698	-0.269951	0.28607	-0.204305	0	0	-0.293091	-0.0363773	-0.236988	0.116	-0.552821	1.18939	0.713642	0.321968	0	0	-0.232184	-0.413354	0.0226813	0.893213	1.53208	0	0
1.46	3.10683	1.36715	-1.37778	0.549662	1.28671	0.958058	0.106648	-0.203675	-0.226937	1.28832	-0.346698	0	0	-0.153135	-0.00152552	-0.269375	0.281757	-0.201257	0	0	-0.295634	-0.0291681	-0.241503	0.119789	-0.555967	1.19345	0.714462	0.322868	0	0	-0.219763	-0.418071	0.0217662	0.900366	1.5317	0	0
1.47	3.08647	1.36498	-1.35353	0.547963	1.29575	0.958882	0.126785	-0.200015	-0.231433	1.2801	-0.331581	0	0	-0.167366	-0.00748171	-0.269039	0.277358	-0.199078	0	0	-0.297605	-0.0222548	-0.245663	0.123749	-0.55901	1.1979	0.715144	0.324201	0	0	-0.207099	-0.421906	0.0191529	0.90803	1.53048	0	0
1.48	3.06678	1.36339	-1.33005	0.546352	1.30469	0.959508	0.146758	-0.194637	-0.233965	1.26856	-0.314637	0	0	-0.180468	-0.0133031	-0.268998	0.273489	-0.19697	0	0	-0.2992	-0.0156717	-0.249576	0.12776	-0.561584	1.20236	0.71527	0.32579	0	0	-0.194583	-0.425203	0.01502	0.916749	1.52892	0	0
1.49	3.04866	1.36131	-1.3072	0.544725	1.31346	0.960004	0.164843	-0.189102	-0.237314	1.25359	-0.296244	0	0	-0.193482	-0.0191729	-0.267957	0.270488	-0.194344	0	0	-0.301848	-0.00912162	-0.254289	0.131639	-0.563891	1.20596	0.715701	0.326822	0	0	-0.182459	-0.428465	0.00968501	0.926886	1.52734	0	0
1.5	3.03298	1.35927	-1.28683	0.543179	1.32221	0.960327	0.181708	-0.183886	-0.240445	1.23562	-0.27434	0	0	-0.206503	-0.0247062	-0.267065	0.267704	-0.190358	0	0	-0.304825	-0.00312941	-0.259218	0.135448	-0.566062	1.20916	0.716637	0.327777	0	0	-0.171282	-0.430746	0.00167592	0.938424	1.5267	0	0
1.51	3.01969	1.35815	-1.26948	0.541733	1.33095	0.960433	0.197991	-0.179276	-0.242841	1.21431	-0.253112	0	0	-0.218726	-0.0294004	-0.266636	0.264931	-0.185982	0	0	-0.307	0.00192203	-0.26336	0.138861	-0.568065	1.21202	0.717609	0.328885	0	0	-0.160389	-0.432738	-0.00653538	0.950291	1.52688	0	0
1.52	3.00976	1.35706	-1.25616	0.540342	1.33963	0.960387	0.212075	-0.175485	-0.24465	1.1898	-0.231101	0	0	-0.231248	-0.0330113	-0.266645	0.261512	-0.181708	0	0	-0.309591	0.0061306	-0.266809	0.142779	-0.570199	1.21528	0.718539	0.330496	0	0	-0.149762	-0.434522	-0.015018	0.963011	1.52758	0	0
1.53	3.00293	1.35555	-1.24645	0.539027	1.34831	0.960239	0.22335	-0.172037	-0.245828	1.16158	-0.20987	0	0	-0.244727	-0.035891	-0.266528	0.257416	-0.17753	0	0	-0.312883	0.00974059	-0.269742	0.14655	-0.572465	1.21804	0.719874	0.331797	0	0	-0.139573	-0.436149	-0.023515	0.976471	1.52805	0	0
1.54	2.9988	1.35467	-1.23922	0.537861	1.3571	0.959925	0.233864	-0.168789	-0.247548	1.12644	-0.196722	0	0	-0.257856	-0.0383093	-0.265621	0.253189	-0.173145	0	0	-0.315572	0.0123739	-0.272612	0.149447	-0.574099	1.22033	0.720939	0.332923	0	0	-0.129891	-0.438126	-0.0311107	0.990133	1.52902	0	0
1.55	2.99844	1.35509	-1.23556	0.536767	1.36592	0.959362	0.244011	-0.166901	-0.249779	1.08622	-0.190956	0	0	-0.269598	-0.0398534	-0.266163	0.24957	-0.168855	0	0	-0.317226	0.0136836	-0.275545	0.151832	-0.575131	1.22264	0.721613	0.334223	0	0	-0.12061	-0.440507	-0.0374993	1.00397	1.52984	0	0
1.56	2.99866	1.35606	-1.23261	0.53579	1.37481	0.958624	0.252309	-0.164705	-0.251689	1.04347	-0.186619	0	0	-0.28074	-0.0413029	-0.267313	0.246555	-0.164675	0	0	-0.318146	0.0145444	-0.278068	0.153591	-0.575832	1.22487	0.722172	0.335572	0	0	-0.111522	-0.443198	-0.0424813	1.01747	1.53011	0	0
1.57	2.99884	1.35703	-1.22987	0.534959	1.38374	0.957796	0.258119	-0.162162	-0.254668	1.00148	-0.178449	0	0	-0.291811	-0.0428609	-0.268256	0.243989	-0.160285	0	0	-0.319061	0.0151366	-0.280156	0.154708	-0.575676	1.22558	0.721909	0.335886	0	0	-0.10262	-0.44587	-0.046924	1.03068	1.53011	0	0
1.58	3.00061	1.35896	-1.22922	0.534314	1.39273	0.956785	0.26327	-0.160326	-0.258114	0.955881	-0.169607	0	0	-0.301872	-0.043821	-0.268841	0.241953	-0.155359	0	0	-0.319096	0.0147187	-0.281724	0.155131	-0.57502	1.22545	0.721547	0.335676	0	0	-0.0941946	-0.44851	-0.0508992	1.04351	1.52996	0	0
1.59	3.00386	1.36244	-1.23078	0.533849	1.40181	0.955577	0.268882	-0.159324	-0.261688	0.906052	-0.16171	0	0	-0.310342	-0.0439251	-0.269296	0.240388	-0.149936	0	0	-0.317664	0.0131525	-0.282356	0.155494	-0.573874	1.22679	0.720457	0.33711	0	0	-0.0859423	-0.450968	-0.0540314	1.05541	1.52992	0	0
